<svg xmlns="http://www.w3.org/2000/svg" width="23.81" height="24.031" viewBox="0 0 23.81 24.031">
  <defs>
    <style>
      .cls-1 {
        fill: #fff;
        fill-rule: evenodd;
      }
    </style>
  </defs>
  <path id="pinterest.svg" class="cls-1" d="M1536.17,928.874a11.911,11.911,0,0,0-11.96,0,11.957,11.957,0,0,0-5.93,10.394,11.644,11.644,0,0,0,1.97,6.612,11.86,11.86,0,0,0,5.16,4.393,10.761,10.761,0,0,1,.2-2.768l1.54-6.533a4.175,4.175,0,0,1-.39-1.907,3.567,3.567,0,0,1,.67-2.219,1.976,1.976,0,0,1,1.63-.891,1.438,1.438,0,0,1,1.19.516,1.987,1.987,0,0,1,.42,1.3,4.842,4.842,0,0,1-.18,1.18c-0.12.464-.27,1-0.46,1.61s-0.33,1.1-.41,1.461a1.775,1.775,0,0,0,.35,1.634,1.9,1.9,0,0,0,1.52.68,3.127,3.127,0,0,0,2.73-1.86,8.955,8.955,0,0,0,1.06-4.517,4.463,4.463,0,0,0-1.31-3.329,5.006,5.006,0,0,0-3.65-1.282,5.666,5.666,0,0,0-5.87,5.752,3.558,3.558,0,0,0,.79,2.36,0.71,0.71,0,0,1,.17.672c-0.02.063-.06,0.219-0.12,0.469s-0.11.412-.13,0.485a0.386,0.386,0,0,1-.59.312,3.508,3.508,0,0,1-1.81-1.735,6.335,6.335,0,0,1-.62-2.86,6.944,6.944,0,0,1,.33-2.095,7.133,7.133,0,0,1,1.04-2.024,8.327,8.327,0,0,1,1.69-1.727,7.96,7.96,0,0,1,2.4-1.2,9.84,9.84,0,0,1,3.04-.454,7.956,7.956,0,0,1,3.96.984,6.955,6.955,0,0,1,2.67,2.549,6.431,6.431,0,0,1,.93,3.344,10.555,10.555,0,0,1-.81,4.222,6.96,6.96,0,0,1-2.28,2.945,5.551,5.551,0,0,1-3.35,1.071,3.658,3.658,0,0,1-1.77-.446,2.535,2.535,0,0,1-1.13-1.054l-0.84,3.3a9.765,9.765,0,0,1-1.21,2.564,11.827,11.827,0,0,0,9.36-1.11A12.05,12.05,0,0,0,1536.17,928.874Z" transform="translate(-1518.28 -927.25)"/>
</svg>
